<svg width="18" height="18" viewBox="0 0 18 18" fill="none" xmlns="http://www.w3.org/2000/svg">
<path d="M15.75 4.81448C15.2445 5.03826 14.7083 5.18483 14.1593 5.2493C14.7373 4.90318 15.1698 4.35885 15.3765 3.71761C14.8329 4.03977 14.2385 4.26726 13.6187 4.39036C13.239 3.98443 12.7459 3.70214 12.2036 3.58018C11.6613 3.45823 11.0949 3.50226 10.578 3.70655C10.061 3.91083 9.61753 4.26592 9.30511 4.72565C8.99269 5.18537 8.82582 5.72846 8.82619 6.2843C8.82619 6.50198 8.85038 6.71292 8.89931 6.91486C7.79766 6.86064 6.7198 6.57489 5.73597 6.07624C4.75215 5.57759 3.88443 4.87723 3.18938 4.0208C2.94242 4.44352 2.8129 4.92454 2.81419 5.41411C2.81419 6.3743 3.30187 7.22255 4.04662 7.71923C3.60673 7.70528 3.17658 7.58607 2.79225 7.37161V7.40705C2.79187 8.04671 3.01299 8.66676 3.41804 9.16184C3.82308 9.65692 4.38706 9.99648 5.01412 10.1228C4.60635 10.2346 4.17832 10.2512 3.76313 10.1712C3.93998 10.7215 4.2843 11.2028 4.748 11.5479C5.21169 11.893 5.7716 12.0846 6.3495 12.096C5.77499 12.547 5.11718 12.8802 4.41374 13.0766C3.7103 13.273 2.97502 13.3288 2.25 13.2407C3.51592 14.0554 4.98979 14.488 6.49519 14.4867C11.5903 14.4867 14.3769 10.2657 14.3769 6.60492C14.3769 6.4868 14.3724 6.3653 14.3679 6.24661C14.9094 5.85458 15.3773 5.36994 15.75 4.81505V4.81448Z" fill="white"/>
</svg>
